<svg id="Footer_IC_Instagram" xmlns="http://www.w3.org/2000/svg" width="32" height="32" viewBox="0 0 32 32">
  <rect id="Rectangle_167791" data-name="Rectangle 167791" width="32" height="32" fill="none"/>
  <g id="instagram" transform="translate(3.467 3.347)">
    <path id="Subtraction_53" data-name="Subtraction 53" d="M20.3,25.305H5a5.006,5.006,0,0,1-5-5V5A5.006,5.006,0,0,1,5,0H20.3a5.006,5.006,0,0,1,5,5V20.306A5.005,5.005,0,0,1,20.3,25.305ZM12.7,6.273a6.327,6.327,0,0,0,0,12.653,6.446,6.446,0,0,0,2.848-.671,6.32,6.32,0,0,0,3.409-6.584,6.316,6.316,0,0,0-5.325-5.324A5.57,5.57,0,0,0,12.7,6.273Zm6.908-1.844a1.265,1.265,0,0,0,0,2.531h.007a1.265,1.265,0,0,0,0-2.531ZM12.7,16.4a3.8,3.8,0,0,1,0-7.6,3.907,3.907,0,0,1,.563.044A3.8,3.8,0,0,1,12.7,16.4Z" transform="translate(0 0)" fill="#191919"/>
  </g>
</svg>
