<svg id="Footer_IC_Youtube" xmlns="http://www.w3.org/2000/svg" width="32" height="32" viewBox="0 0 32 32">
  <rect id="Rectangle_167792" data-name="Rectangle 167792" width="32" height="32" fill="none"/>
  <path id="Icon_awesome-youtube" data-name="Icon awesome-youtube" d="M28.151,7.812A3.645,3.645,0,0,0,25.7,5.133C23.545,4.5,14.89,4.5,14.89,4.5s-8.656,0-10.814.633A3.645,3.645,0,0,0,1.628,7.812,43.074,43.074,0,0,0,1.05,15.1,43.074,43.074,0,0,0,1.628,22.4a3.585,3.585,0,0,0,2.447,2.636c2.159.633,10.814.633,10.814.633s8.656,0,10.814-.633A3.585,3.585,0,0,0,28.151,22.4a43.075,43.075,0,0,0,.578-7.292,43.075,43.075,0,0,0-.578-7.292ZM12.059,19.58V10.628L19.293,15.1,12.059,19.58Z" transform="translate(1.11 1.152)" fill="#191919"/>
</svg>
